HIERARCHY
ROOT Hips
{
	OFFSET 0.053599 88.859886 3.107447
	CHANNELS 6 Xposition Yposition Zposition Zrotation Yrotation Xrotation 
	JOINT Spine
	{
		OFFSET -0.000000 8.814246 -2.080107
		CHANNELS 3 Zrotation Yrotation Xrotation
		JOINT Spine1
		{
			OFFSET 0.000000 8.844141 0.000000
			CHANNELS 3 Zrotation Yrotation Xrotation
			JOINT Spine2
			{
				OFFSET -0.000000 11.682268 0.000000
				CHANNELS 3 Zrotation Yrotation Xrotation
				JOINT Spine3
				{
					OFFSET 0.000000 11.746700 0.000000
					CHANNELS 3 Zrotation Yrotation Xrotation
					JOINT Neck
					{
						OFFSET -0.000000 17.658264 -0.000000
						CHANNELS 3 Zrotation Yrotation Xrotation
						JOINT Neck1
						{
							OFFSET -0.000000 5.101515 -0.000000
							CHANNELS 3 Zrotation Yrotation Xrotation
							JOINT Head
							{
								OFFSET 0.000000 5.101515 0.000000
								CHANNELS 3 Zrotation Yrotation Xrotation
								JOINT HeadEnd
								{
									OFFSET 0.000000 11.655085 0.000000
									CHANNELS 3 Zrotation Yrotation Xrotation
									End Site
									{
										OFFSET 0.000000 0.000000 0.000000
									}
								}
							}
						}
					}
					JOINT RightShoulder
					{
						OFFSET -2.625389 11.175210 0.000000
						CHANNELS 3 Zrotation Yrotation Xrotation
						JOINT RightArm
						{
							OFFSET -0.000000 10.434715 -0.000000
							CHANNELS 3 Zrotation Yrotation Xrotation
							JOINT RightForeArm
							{
								OFFSET -0.000000 29.628420 0.000000
								CHANNELS 3 Zrotation Yrotation Xrotation
								JOINT RightHand
								{
									OFFSET -0.000000 22.857611 0.000000
									CHANNELS 3 Zrotation Yrotation Xrotation
									JOINT RightHandThumb1
									{
										OFFSET -2.867323 3.959563 2.944291
										CHANNELS 3 Zrotation Yrotation Xrotation
										JOINT RightHandThumb2
										{
											OFFSET 0.000000 3.350399 0.000000
											CHANNELS 3 Zrotation Yrotation Xrotation
											JOINT RightHandThumb3
											{
												OFFSET 0.000000 3.756509 -0.000000
												CHANNELS 3 Zrotation Yrotation Xrotation
												JOINT RightHandThumb4
												{
													OFFSET 0.000000 3.147345 0.000000
													CHANNELS 3 Zrotation Yrotation Xrotation
													End Site
													{
														OFFSET 0.000000 0.000000 0.000000
													}
												}
											}
										}
									}
									JOINT RightHandIndex1
									{
										OFFSET -0.086752 10.030893 2.345280
										CHANNELS 3 Zrotation Yrotation Xrotation
										JOINT RightHandIndex2
										{
											OFFSET -0.000000 4.061090 0.000000
											CHANNELS 3 Zrotation Yrotation Xrotation
											JOINT RightHandIndex3
											{
												OFFSET -0.000000 3.248873 0.000000
												CHANNELS 3 Zrotation Yrotation Xrotation
												JOINT RightHandIndex4
												{
													OFFSET 0.000000 2.639709 -0.000000
													CHANNELS 3 Zrotation Yrotation Xrotation
													End Site
													{
														OFFSET 0.000000 0.000000 0.000000
													}
												}
											}
										}
									}
									JOINT RightHandMiddle1
									{
										OFFSET 0.104102 9.502952 0.006768
										CHANNELS 3 Zrotation Yrotation Xrotation
										JOINT RightHandMiddle2
										{
											OFFSET 0.000000 4.568727 0.000000
											CHANNELS 3 Zrotation Yrotation Xrotation
											JOINT RightHandMiddle3
											{
												OFFSET 0.000000 3.654981 -0.000000
												CHANNELS 3 Zrotation Yrotation Xrotation
												JOINT RightHandMiddle4
												{
													OFFSET -0.000000 2.741236 -0.000000
													CHANNELS 3 Zrotation Yrotation Xrotation
													End Site
													{
														OFFSET 0.000000 0.000000 0.000000
													}
												}
											}
										}
									}
									JOINT RightHandRing1
									{
										OFFSET 0.086752 8.921708 -2.267442
										CHANNELS 3 Zrotation Yrotation Xrotation
										JOINT RightHandRing2
										{
											OFFSET -0.000000 4.061090 0.000000
											CHANNELS 3 Zrotation Yrotation Xrotation
											JOINT RightHandRing3
											{
												OFFSET 0.000000 3.654981 -0.000000
												CHANNELS 3 Zrotation Yrotation Xrotation
												JOINT RightHandRing4
												{
													OFFSET 0.000000 2.741236 -0.000000
													CHANNELS 3 Zrotation Yrotation Xrotation
													End Site
													{
														OFFSET 0.000000 0.000000 0.000000
													}
												}
											}
										}
									}
									JOINT RightHandPinky1
									{
										OFFSET -0.173504 7.976997 -4.467199
										CHANNELS 3 Zrotation Yrotation Xrotation
										JOINT RightHandPinky2
										{
											OFFSET 0.000000 3.350399 -0.000000
											CHANNELS 3 Zrotation Yrotation Xrotation
											JOINT RightHandPinky3
											{
												OFFSET -0.000000 2.842763 0.000000
												CHANNELS 3 Zrotation Yrotation Xrotation
												JOINT RightHandPinky4
												{
													OFFSET -0.000000 2.639709 0.000000
													CHANNELS 3 Zrotation Yrotation Xrotation
													End Site
													{
														OFFSET 0.000000 0.000000 0.000000
													}
												}
											}
										}
									}
									JOINT RightForeArmEnd
									{
										OFFSET 0.000000 0.000000 0.000000
										CHANNELS 3 Zrotation Yrotation Xrotation
										End Site
										{
											OFFSET 0.000000 0.000000 0.000000
										}
									}
								}
								JOINT RightArmEnd
								{
									OFFSET 0.000000 0.000000 0.000000
									CHANNELS 3 Zrotation Yrotation Xrotation
									End Site
									{
										OFFSET 0.000000 0.000000 0.000000
									}
								}
							}
						}
					}
					JOINT LeftShoulder
					{
						OFFSET 2.625389 11.175210 0.000000
						CHANNELS 3 Zrotation Yrotation Xrotation
						JOINT LeftArm
						{
							OFFSET 0.000000 10.813635 -0.000000
							CHANNELS 3 Zrotation Yrotation Xrotation
							JOINT LeftForeArm
							{
								OFFSET 0.000000 28.724781 0.000000
								CHANNELS 3 Zrotation Yrotation Xrotation
								JOINT LeftHand
								{
									OFFSET 0.644384 25.716167 -0.328871
									CHANNELS 3 Zrotation Yrotation Xrotation
									JOINT LeftHandThumb1
									{
										OFFSET 2.867323 3.959563 2.944291
										CHANNELS 3 Zrotation Yrotation Xrotation
										JOINT LeftHandThumb2
										{
											OFFSET 0.000000 3.350399 0.000000
											CHANNELS 3 Zrotation Yrotation Xrotation
											JOINT LeftHandThumb3
											{
												OFFSET -0.000000 3.756509 0.000000
												CHANNELS 3 Zrotation Yrotation Xrotation
												JOINT LeftHandThumb4
												{
													OFFSET -0.000000 3.100000 0.000000
													CHANNELS 3 Zrotation Yrotation Xrotation
													End Site
													{
														OFFSET 0.000000 0.000000 0.000000
													}
												}
											}
										}
									}
									JOINT LeftHandIndex1
									{
										OFFSET 0.086752 10.030893 2.345280
										CHANNELS 3 Zrotation Yrotation Xrotation
										JOINT LeftHandIndex2
										{
											OFFSET -0.000000 4.061090 -0.000000
											CHANNELS 3 Zrotation Yrotation Xrotation
											JOINT LeftHandIndex3
											{
												OFFSET 0.000000 3.248873 -0.000000
												CHANNELS 3 Zrotation Yrotation Xrotation
												JOINT LeftHandIndex4
												{
													OFFSET 0.000000 2.639709 -0.000000
													CHANNELS 3 Zrotation Yrotation Xrotation
													End Site
													{
														OFFSET 0.000000 0.000000 0.000000
													}
												}
											}
										}
									}
									JOINT LeftHandMiddle1
									{
										OFFSET -0.104102 9.502952 0.006768
										CHANNELS 3 Zrotation Yrotation Xrotation
										JOINT LeftHandMiddle2
										{
											OFFSET -0.000000 4.568727 -0.000000
											CHANNELS 3 Zrotation Yrotation Xrotation
											JOINT LeftHandMiddle3
											{
												OFFSET 0.000000 3.654981 0.000000
												CHANNELS 3 Zrotation Yrotation Xrotation
												JOINT LeftHandMiddle4
												{
													OFFSET 0.000000 2.741236 -0.000000
													CHANNELS 3 Zrotation Yrotation Xrotation
													End Site
													{
														OFFSET 0.000000 0.000000 0.000000
													}
												}
											}
										}
									}
									JOINT LeftHandRing1
									{
										OFFSET -0.086752 8.921708 -2.267442
										CHANNELS 3 Zrotation Yrotation Xrotation
										JOINT LeftHandRing2
										{
											OFFSET 0.000000 4.061090 0.000000
											CHANNELS 3 Zrotation Yrotation Xrotation
											JOINT LeftHandRing3
											{
												OFFSET 0.000000 3.654981 0.000000
												CHANNELS 3 Zrotation Yrotation Xrotation
												JOINT LeftHandRing4
												{
													OFFSET 0.000000 2.741236 0.000000
													CHANNELS 3 Zrotation Yrotation Xrotation
													End Site
													{
														OFFSET 0.000000 0.000000 0.000000
													}
												}
											}
										}
									}
									JOINT LeftHandPinky1
									{
										OFFSET 0.173504 7.976997 -4.467199
										CHANNELS 3 Zrotation Yrotation Xrotation
										JOINT LeftHandPinky2
										{
											OFFSET -0.000000 3.350399 -0.000000
											CHANNELS 3 Zrotation Yrotation Xrotation
											JOINT LeftHandPinky3
											{
												OFFSET 0.000000 2.842763 0.000000
												CHANNELS 3 Zrotation Yrotation Xrotation
												JOINT LeftHandPinky4
												{
													OFFSET -0.000000 2.639709 -0.000000
													CHANNELS 3 Zrotation Yrotation Xrotation
													End Site
													{
														OFFSET 0.000000 0.000000 0.000000
													}
												}
											}
										}
									}
									JOINT LeftForeArmEnd
									{
										OFFSET 0.000000 0.000000 0.000000
										CHANNELS 3 Zrotation Yrotation Xrotation
										End Site
										{
											OFFSET 0.000000 0.000000 0.000000
										}
									}
								}
								JOINT LeftArmEnd
								{
									OFFSET 0.000000 0.000000 0.000000
									CHANNELS 3 Zrotation Yrotation Xrotation
									End Site
									{
										OFFSET 0.000000 0.000000 0.000000
									}
								}
							}
						}
					}
				}
			}
		}
	}
	JOINT RightUpLeg
	{
		OFFSET -11.289943 0.000000 0.000000
		CHANNELS 3 Zrotation Yrotation Xrotation
		JOINT RightLeg
		{
			OFFSET 0.000000 -38.200325 0.000000
			CHANNELS 3 Zrotation Yrotation Xrotation
			JOINT RightFoot
			{
				OFFSET -0.000000 -39.900856 -0.000000
				CHANNELS 3 Zrotation Yrotation Xrotation
				JOINT RightToeBase
				{
					OFFSET 0.000000 0.000000 15.261641
					CHANNELS 3 Zrotation Yrotation Xrotation
					JOINT RightToeBaseEnd
					{
						OFFSET 0.000000 0.000000 7.370709
						CHANNELS 3 Zrotation Yrotation Xrotation
						End Site
						{
							OFFSET 0.000000 0.000000 0.000000
						}
					}
				}
				JOINT RightLegEnd
				{
					OFFSET 0.000000 0.000000 0.000000
					CHANNELS 3 Zrotation Yrotation Xrotation
					End Site
					{
						OFFSET 0.000000 0.000000 0.000000
					}
				}
			}
			JOINT RightUpLegEnd
			{
				OFFSET 0.000000 0.000000 0.000000
				CHANNELS 3 Zrotation Yrotation Xrotation
				End Site
				{
					OFFSET 0.000000 0.000000 0.000000
				}
			}
		}
	}
	JOINT LeftUpLeg
	{
		OFFSET 11.315661 -0.000000 0.000000
		CHANNELS 3 Zrotation Yrotation Xrotation
		JOINT LeftLeg
		{
			OFFSET -0.000000 -38.200325 -0.000000
			CHANNELS 3 Zrotation Yrotation Xrotation
			JOINT LeftFoot
			{
				OFFSET 0.000000 -39.900856 -0.000000
				CHANNELS 3 Zrotation Yrotation Xrotation
				JOINT LeftToeBase
				{
					OFFSET -0.000000 -0.000000 15.261641
					CHANNELS 3 Zrotation Yrotation Xrotation
					JOINT LeftToeBaseEnd
					{
						OFFSET 0.000000 -0.000000 7.539996
						CHANNELS 3 Zrotation Yrotation Xrotation
						End Site
						{
							OFFSET 0.000000 0.000000 0.000000
						}
					}
				}
				JOINT LeftLegEnd
				{
					OFFSET 0.000000 0.000000 0.000000
					CHANNELS 3 Zrotation Yrotation Xrotation
					End Site
					{
						OFFSET 0.000000 0.000000 0.000000
					}
				}
			}
			JOINT LeftUpLegEnd
			{
				OFFSET 0.000000 0.000000 0.000000
				CHANNELS 3 Zrotation Yrotation Xrotation
				End Site
				{
					OFFSET 0.000000 0.000000 0.000000
				}
			}
		}
	}
}
MOTION
Frames: 4
Frame Time: 0.016667
0.300542 88.677269 3.429364 -0.521332 -1.453214 -11.282621 1.462998 0.068721 7.118625 -0.977420 0.334531 2.645138 0.351092 -0.565148 4.502792 -1.478873 0.294938 4.568979 0.809678 -0.104299 5.960837 0.439455 0.301827 -2.569684 -0.402644 -1.159893 -20.270969 0.000000 0.000000 0.000000 92.591042 -0.384626 10.434863 64.335487 -29.612400 6.777784 -0.134541 16.939135 27.700970 8.101039 8.580718 -5.094865 19.747229 30.150612 62.225765 -8.234806 -11.926721 -20.103239 -6.143328 -7.862294 -13.876753 0.000000 0.000000 0.000000 12.143159 -11.040098 1.913326 10.255804 0.383795 1.341283 10.024729 -0.049962 1.292627 0.000000 0.000000 0.000000 11.305180 -5.441745 -0.034310 8.842611 0.456721 0.505699 9.417012 -0.035345 0.434289 0.000000 0.000000 0.000000 11.745975 2.487558 -0.957715 9.577773 -0.940302 -0.746447 9.556135 0.027662 -0.519707 0.000000 0.000000 0.000000 10.336839 11.159966 -2.919115 9.174537 -1.799591 -2.156712 9.220477 0.138282 -1.799429 0.000000 0.000000 0.000000 0.000000 0.000000 0.000000 0.000000 0.000000 0.000000 -90.062668 0.296006 5.272912 -69.982124 17.218842 -3.149578 -0.276243 -12.003495 52.340996 -4.837284 -9.969597 -12.652441 -19.226181 -30.273794 62.507694 7.936197 11.008134 -18.870701 5.842284 7.406315 -13.181136 0.000000 0.000000 0.000000 -13.153688 -6.450466 4.796872 -8.649849 0.409721 -1.053265 -8.315506 -0.051794 -1.016377 0.000000 0.000000 0.000000 -12.511730 -1.308538 1.633230 -8.316224 0.455364 -0.474727 -8.549909 -0.033470 -0.376833 0.000000 0.000000 0.000000 -15.817896 6.960962 -1.397759 -10.365839 -0.936568 0.758809 -10.485188 0.047078 0.586702 0.000000 0.000000 0.000000 -18.309311 15.910645 -5.554999 -11.880049 -1.749080 2.460438 -11.463707 0.269592 2.155312 0.000000 0.000000 0.000000 0.000000 0.000000 0.000000 0.000000 0.000000 0.000000 -0.406508 -9.650230 15.566697 -0.073024 -0.711588 4.977799 -2.660116 -8.014997 17.603840 -0.873115 0.893593 -18.475052 0.000000 0.000000 0.000000 0.000000 0.000000 0.000000 0.000000 0.000000 0.000000 -0.805677 -6.479585 9.699636 0.069266 0.297405 11.379534 3.500830 -0.873626 16.200985 0.280695 -0.372003 -20.770508 0.000000 0.000000 0.000000 0.000000 0.000000 0.000000 0.000000 0.000000 0.000000 
0.298262 88.674156 3.428346 -0.526233 -1.469483 -11.323643 1.453164 0.075130 7.121432 -0.980494 0.341153 2.659090 0.337557 -0.543753 4.525549 -1.480935 0.305256 4.585046 0.840591 -0.140658 6.031106 0.440722 0.277774 -2.538287 -0.395623 -1.160351 -20.281105 0.000000 0.000000 0.000000 92.616783 -0.385707 10.431501 64.292389 -29.524939 6.846750 -0.133049 17.044292 27.846466 8.073287 8.743979 -4.984415 19.741999 30.153589 62.231934 -8.225956 -11.921671 -20.088856 -6.137117 -7.854810 -13.865900 0.000000 0.000000 0.000000 12.069757 -11.031374 1.976294 10.235634 0.385038 1.339565 10.006443 -0.048702 1.290494 0.000000 0.000000 0.000000 11.239926 -5.431085 0.005446 8.824965 0.457211 0.505108 9.398172 -0.034981 0.433604 0.000000 0.000000 0.000000 11.698256 2.496716 -0.965721 9.570867 -0.940988 -0.745828 9.544825 0.027351 -0.518720 0.000000 0.000000 0.000000 10.310502 11.165306 -2.961749 9.175397 -1.801164 -2.157233 9.225398 0.137219 -1.798784 0.000000 0.000000 0.000000 0.000000 0.000000 0.000000 0.000000 0.000000 0.000000 -90.086975 0.304853 5.263218 -69.865166 17.371876 -3.014412 -0.239047 -12.073149 52.718773 -4.928948 -9.802070 -12.491201 -19.175575 -30.288670 62.555500 7.886857 10.912033 -18.724995 5.800917 7.343815 -13.080832 0.000000 0.000000 0.000000 -12.826606 -6.507560 4.976056 -8.434575 0.410576 -1.048625 -8.097020 -0.051046 -1.012407 0.000000 0.000000 0.000000 -12.211086 -1.362751 1.739892 -8.113353 0.455105 -0.473871 -8.349542 -0.033508 -0.376396 0.000000 0.000000 0.000000 -15.561783 6.918060 -1.402775 -10.194675 -0.936144 0.760267 -10.315052 0.047528 0.588062 0.000000 0.000000 0.000000 -18.123981 15.892424 -5.675624 -11.758256 -1.748614 2.472700 -11.345093 0.271064 2.163731 0.000000 0.000000 0.000000 0.000000 0.000000 0.000000 0.000000 0.000000 0.000000 -0.409495 -9.646436 15.606387 -0.073701 -0.713720 4.969545 -2.653842 -7.993310 17.596666 -0.871106 0.898085 -18.458820 0.000000 0.000000 0.000000 0.000000 0.000000 0.000000 0.000000 0.000000 0.000000 -0.782777 -6.473338 9.736547 0.069851 0.296299 11.413654 3.489252 -0.843674 16.189280 0.283373 -0.371286 -20.766462 0.000000 0.000000 0.000000 0.000000 0.000000 0.000000 0.000000 0.000000 0.000000 
0.296589 88.670891 3.427532 -0.530508 -1.490901 -11.364255 1.444783 0.080690 7.124262 -0.982783 0.347256 2.674658 0.324540 -0.522941 4.547282 -1.480800 0.315461 4.602171 0.858437 -0.164775 6.089339 0.443856 0.264605 -2.512989 -0.390245 -1.161422 -20.288074 0.000000 0.000000 0.000000 92.642807 -0.388093 10.431380 64.262886 -29.411386 6.900511 -0.132344 17.143841 27.986513 8.034361 8.909729 -4.881976 19.734760 30.157024 62.239773 -8.215540 -11.912775 -20.068981 -6.129493 -7.844988 -13.850961 0.000000 0.000000 0.000000 11.980734 -11.019777 2.040312 10.205045 0.386031 1.337155 9.978014 -0.047649 1.287903 0.000000 0.000000 0.000000 11.159044 -5.417841 0.045814 8.796130 0.457651 0.504242 9.370116 -0.034669 0.432666 0.000000 0.000000 0.000000 11.639885 2.507669 -0.973410 9.554433 -0.941494 -0.744989 9.524494 0.027184 -0.517583 0.000000 0.000000 0.000000 10.276674 11.172053 -3.005034 9.169215 -1.802098 -2.157449 9.223148 0.136481 -1.798007 0.000000 0.000000 0.000000 0.000000 0.000000 0.000000 0.000000 0.000000 0.000000 -90.111977 0.315589 5.253588 -69.764053 17.503164 -2.886074 -0.205717 -12.140480 53.059692 -5.027416 -9.635873 -12.344455 -19.118177 -30.305582 62.609554 7.830809 10.803014 -18.559126 5.754182 7.273010 -12.966766 0.000000 0.000000 0.000000 -12.445009 -6.574692 5.168813 -8.176825 0.411126 -1.044587 -7.836535 -0.050583 -1.009107 0.000000 0.000000 0.000000 -11.856891 -1.426816 1.854884 -7.869647 0.454734 -0.473177 -8.107843 -0.033656 -0.376084 0.000000 0.000000 0.000000 -15.254428 6.866385 -1.405374 -9.986324 -0.935537 0.762144 -10.107767 0.048093 0.589637 0.000000 0.000000 0.000000 -17.894009 15.868747 -5.800454 -11.609075 -1.747419 2.486472 -11.198324 0.273203 2.173807 0.000000 0.000000 0.000000 0.000000 0.000000 0.000000 0.000000 0.000000 0.000000 -0.413976 -9.640469 15.644083 -0.074436 -0.715889 4.964209 -2.646136 -7.965921 17.586403 -0.869487 0.902545 -18.441053 0.000000 0.000000 0.000000 0.000000 0.000000 0.000000 0.000000 0.000000 0.000000 -0.762655 -6.464623 9.772323 0.070340 0.295137 11.448244 3.478233 -0.809887 16.176044 0.285479 -0.371272 -20.762421 0.000000 0.000000 0.000000 0.000000 0.000000 0.000000 0.000000 0.000000 0.000000 
0.295656 88.667488 3.426889 -0.534086 -1.517029 -11.404165 1.438188 0.085141 7.127792 -0.984693 0.352735 2.691497 0.313473 -0.503684 4.567984 -1.479378 0.325147 4.619513 0.863234 -0.176858 6.136239 0.448474 0.261423 -2.492742 -0.386463 -1.163200 -20.291828 0.000000 0.000000 0.000000 92.669243 -0.391874 10.434594 64.243393 -29.280159 6.939037 -0.132246 17.234255 28.117819 7.989098 9.075041 -4.790355 19.724527 30.161131 62.250000 -8.202919 -11.898152 -20.041058 -6.119927 -7.831653 -13.830199 0.000000 0.000000 0.000000 11.872489 -11.004844 2.103764 10.161640 0.386866 1.333741 9.936805 -0.046712 1.284620 0.000000 0.000000 0.000000 11.059659 -5.401582 0.084990 8.754184 0.458067 0.502906 9.330567 -0.034371 0.431364 0.000000 0.000000 0.000000 11.568414 2.520807 -0.982298 9.526765 -0.941860 -0.743614 9.493431 0.027105 -0.516067 0.000000 0.000000 0.000000 10.232560 11.180455 -3.050229 9.154854 -1.802619 -2.156194 9.212303 0.135867 -1.795984 0.000000 0.000000 0.000000 0.000000 0.000000 0.000000 0.000000 0.000000 0.000000 -90.137619 0.327312 5.245827 -69.678268 17.619286 -2.767209 -0.175781 -12.200667 53.356113 -5.130280 -9.477456 -12.221918 -19.053656 -30.324678 62.670132 7.767555 10.680449 -18.372028 5.701715 7.193377 -12.838234 0.000000 0.000000 0.000000 -12.007792 -6.652413 5.375955 -7.879115 0.411550 -1.040715 -7.536705 -0.050238 -1.006035 0.000000 0.000000 0.000000 -11.448487 -1.500957 1.979528 -7.586989 0.454329 -0.472411 -7.826738 -0.033837 -0.375707 0.000000 0.000000 0.000000 -14.893080 6.805663 -1.403464 -9.740988 -0.934891 0.763922 -9.863352 0.048653 0.591094 0.000000 0.000000 0.000000 -17.615423 15.839143 -5.926095 -11.430700 -1.745982 2.499937 -11.021749 0.275528 2.183984 0.000000 0.000000 0.000000 0.000000 0.000000 0.000000 0.000000 0.000000 0.000000 -0.419575 -9.632805 15.679468 -0.075216 -0.718045 4.962804 -2.637271 -7.933952 17.573151 -0.868306 0.906869 -18.422741 0.000000 0.000000 0.000000 0.000000 0.000000 0.000000 0.000000 0.000000 0.000000 -0.744805 -6.453462 9.807347 0.070747 0.293864 11.482194 3.467304 -0.773925 16.162148 0.286933 -0.371777 -20.758751 0.000000 0.000000 0.000000 0.000000 0.000000 0.000000 0.000000 0.000000 0.000000 
